{
  "accessors": [
    {
      "bufferView": 2,
      "componentType": 5126,
      "count": 3708,
      "max": [
        2883.758056640625,
        1278.453125,
        327.4490051269531
      ],
      "min": [
        -1000.994873046875,
        971.5181274414063,
        -142.01229858398438
      ],
      "type": "VEC3"
    },
    {
      "bufferView": 2,
      "byteOffset": 44496,
      "componentType": 5126,
      "count": 3708,
      "max": [
        0.9998157620429993,
        0.9999992847442627,
        0.99981290102005
      ],
      "min": [
        -0.9995113015174866,
        -0.9999934434890747,
        -0.9975128173828125
      ],
      "type": "VEC3"
    },
    {
      "bufferView": 3,
      "componentType": 5126,
      "count": 3708,
      "max": [
        0.9995513558387756,
        0.9999861717224121,
        0.9995999336242676,
        1.0
      ],
      "min": [
        -0.9999539256095886,
        -0.9996892809867859,
        -0.9993788003921509,
        -1.0
      ],
      "type": "VEC4"
    },
    {
      "bufferView": 1,
      "componentType": 5126,
      "count": 3708,
      "max": [
        0.991599977016449,
        0.9916999936103821
      ],
      "min": [
        0.009999999776482582,
        0.009999999776482582
      ],
      "type": "VEC2"
    },
    {
      "bufferView": 0,
      "componentType": 5125,
      "count": 17943,
      "type": "SCALAR"
    }
  ],
  "asset": {
    "extras": {
      "author": "shedmon (https://sketchfab.com/shedmon)",
      "license": "CC-BY-4.0 (http://creativecommons.org/licenses/by/4.0/)",
      "source": "https://sketchfab.com/3d-models/fishing-rod-1ffdece4c1054f44b640ef3a189ada09",
      "title": "Fishing Rod"
    },
    "generator": "Sketchfab-12.65.0",
    "version": "2.0"
  },
  "bufferViews": [
    {
      "buffer": 0,
      "byteLength": 71772,
      "name": "floatBufferViews",
      "target": 34963
    },
    {
      "buffer": 0,
      "byteLength": 29664,
      "byteOffset": 71772,
      "byteStride": 8,
      "name": "floatBufferViews",
      "target": 34962
    },
    {
      "buffer": 0,
      "byteLength": 88992,
      "byteOffset": 101436,
      "byteStride": 12,
      "name": "floatBufferViews",
      "target": 34962
    },
    {
      "buffer": 0,
      "byteLength": 59328,
      "byteOffset": 190428,
      "byteStride": 16,
      "name": "floatBufferViews",
      "target": 34962
    }
  ],
  "buffers": [
    {
      "byteLength": 249756,
      "uri": "scene.bin"
    }
  ],
  "images": [
    {
      "uri": "textures/wire_087224198_baseColor.jpeg"
    },
    {
      "uri": "textures/wire_087224198_metallicRoughness.png"
    },
    {
      "uri": "textures/wire_087224198_normal.png"
    }
  ],
  "materials": [
    {
      "doubleSided": true,
      "name": "wire_087224198",
      "normalTexture": {
        "index": 2
      },
      "occlusionTexture": {
        "index": 1
      },
      "pbrMetallicRoughness": {
        "baseColorTexture": {
          "index": 0
        },
        "metallicRoughnessTexture": {
          "index": 1
        }
      }
    }
  ],
  "meshes": [
    {
      "name": "Object_0",
      "primitives": [
        {
          "attributes": {
            "NORMAL": 1,
            "POSITION": 0,
            "TANGENT": 2,
            "TEXCOORD_0": 3
          },
          "indices": 4,
          "material": 0,
          "mode": 4
        }
      ]
    }
  ],
  "nodes": [
    {
      "children": [
        1
      ],
      "matrix": [
        0.9999109506607056,
        0.013347149826586246,
        2.0963008721311397e-18,
        0.0,
        0.006773166358470917,
        -0.5074164271354673,
        -0.8616743683815004,
        0.0,
        -0.011500896885991096,
        0.8615975975990297,
        -0.507461607456207,
        0.0,
        -6.469501972198486,
        571.1038208007813,
        -108.56283569335925,
        1.0
      ],
      "name": "Sketchfab_model"
    },
    {
      "children": [
        2
      ],
      "name": "Rod.obj.cleaner.materialmerger.gles"
    },
    {
      "mesh": 0,
      "name": "Object_2"
    }
  ],
  "samplers": [
    {
      "magFilter": 9729,
      "minFilter": 9987,
      "wrapS": 10497,
      "wrapT": 10497
    }
  ],
  "scene": 0,
  "scenes": [
    {
      "name": "Sketchfab_Scene",
      "nodes": [
        0
      ]
    }
  ],
  "textures": [
    {
      "sampler": 0,
      "source": 0
    },
    {
      "sampler": 0,
      "source": 1
    },
    {
      "sampler": 0,
      "source": 2
    }
  ]
}
